<?xml version="1.0" encoding="UTF-8" standalone="no"?>
<svg xmlns="http://www.w3.org/2000/svg" width="512" height="512" viewBox="0 0 512 512">
  <circle cx="256" cy="256" r="256" fill="#4CAF50"/>
  <g fill="#FFFFFF" transform="translate(128,128) scale(0.5,0.5)">
    <path d="M256 64C150 64 64 150 64 256s86 192 192 192 192-86 192-192S362 64 256 64zm0 336c-79.4 0-144-64.6-144-144S176.6 112 256 112s144 64.6 144 144-64.6 144-144 144z"/>
    <path d="M368 234.667h-90.667V144h-42.666v90.667H144v42.666h90.667V368h42.666v-90.667H368z"/>
  </g>
</svg>
